<?xml version="1.0" standalone="no"?>
<!DOCTYPE svg PUBLIC "-//W3C//DTD SVG 20010904//EN"
 "http://www.w3.org/TR/2001/REC-SVG-20010904/DTD/svg10.dtd">
<svg version="1.0" xmlns="http://www.w3.org/2000/svg"
 width="3840.000000pt" height="2160.000000pt" viewBox="0 0 3840.000000 2160.000000"
 preserveAspectRatio="xMidYMid meet">

<g transform="translate(0.000000,2160.000000) scale(0.100000,-0.100000)"
fill="#000000" stroke="none">
<path d="M2255 21490 c-719 -35 -1532 -121 -2222 -236 l-33 -5 0 -10624 0
-10625 19200 0 19200 0 0 10415 c0 5728 -2 10415 -5 10415 -3 0 -98 -52 -212
-116 -231 -128 -860 -443 -1108 -554 -1706 -767 -3379 -1221 -4990 -1354 -638
-53 -1378 -46 -1985 19 -459 50 -986 150 -1411 270 -375 105 -703 223 -1124
405 -1759 759 -3472 1189 -5395 1355 -888 76 -1930 87 -2920 29 -1208 -70
-2498 -245 -3930 -533 -696 -140 -1028 -216 -1486 -341 -697 -191 -1136 -278
-1634 -325 -1609 -150 -3377 209 -5510 1120 -491 210 -766 304 -1205 414 -516
129 -1026 206 -1705 257 -241 18 -1241 27 -1525 14z"/>
</g>
</svg>
